<?xml version="1.0" encoding="UTF-8" standalone="no"?>
<svg
   xmlns:dc="http://purl.org/dc/elements/1.1/"
   xmlns:cc="http://creativecommons.org/ns#"
   xmlns:rdf="http://www.w3.org/1999/02/22-rdf-syntax-ns#"
   xmlns:svg="http://www.w3.org/2000/svg"
   xmlns="http://www.w3.org/2000/svg"
   viewBox="0 0 2392.3467 628.99469"
   height="628.99469"
   width="2392.3467"
   xml:space="preserve"
   id="svg2"
   version="1.1"><metadata
     id="metadata8"><rdf:RDF><cc:Work
         rdf:about=""><dc:format>image/svg+xml</dc:format><dc:type
           rdf:resource="http://purl.org/dc/dcmitype/StillImage" /></cc:Work></rdf:RDF></metadata><defs
     id="defs6"><clipPath
       id="clipPath18"
       clipPathUnits="userSpaceOnUse"><path
         id="path16"
         d="M 0,471.746 H 1794.262 V 0 H 0 Z" /></clipPath><clipPath
       id="clipPath82"
       clipPathUnits="userSpaceOnUse"><path
         id="path80"
         d="m 316.664,159.26 c 0,-15.402 70.99,-27.881 158.562,-27.881 v 0 c 87.572,0 158.57,12.479 158.57,27.881 v 0 c 0,15.4 -70.998,27.879 -158.57,27.879 v 0 c -87.572,0 -158.562,-12.479 -158.562,-27.879" /></clipPath><radialGradient
       id="radialGradient102"
       spreadMethod="pad"
       gradientTransform="matrix(0,27.649551,-154.32878,0,467.1619,159.13147)"
       gradientUnits="userSpaceOnUse"
       r="1"
       cy="0"
       cx="0"
       fy="0"
       fx="0"><stop
         id="stop92"
         offset="0"
         style="stop-opacity:0.8;stop-color:#ffffff" /><stop
         id="stop94"
         offset="0.5606203"
         style="stop-opacity:0.12306401;stop-color:#ffffff" /><stop
         id="stop96"
         offset="0.65"
         style="stop-opacity:0.12306401;stop-color:#ffffff" /><stop
         id="stop98"
         offset="0.86752101"
         style="stop-opacity:0;stop-color:#ffffff" /><stop
         id="stop100"
         offset="1"
         style="stop-opacity:0;stop-color:#ffffff" /></radialGradient><mask
       id="mask104"
       height="1"
       width="1"
       y="0"
       x="0"
       maskUnits="userSpaceOnUse"><g
         id="g114"><g
           id="g112"><g
             id="g110"><g
               id="g108"><path
                 id="path106"
                 style="fill:url(#radialGradient102);stroke:none"
                 d="M -32768,32767 H 32767 V -32768 H -32768 Z" /></g></g></g></g></mask><radialGradient
       id="radialGradient130"
       spreadMethod="pad"
       gradientTransform="matrix(0,27.649551,-154.32878,0,467.1619,159.13147)"
       gradientUnits="userSpaceOnUse"
       r="1"
       cy="0"
       cx="0"
       fy="0"
       fx="0"><stop
         id="stop120"
         offset="0"
         style="stop-opacity:1;stop-color:#34302d" /><stop
         id="stop122"
         offset="0.5606203"
         style="stop-opacity:1;stop-color:#000000" /><stop
         id="stop124"
         offset="0.65"
         style="stop-opacity:1;stop-color:#000000" /><stop
         id="stop126"
         offset="0.86752101"
         style="stop-opacity:1;stop-color:#000000" /><stop
         id="stop128"
         offset="1"
         style="stop-opacity:1;stop-color:#000000" /></radialGradient><clipPath
       id="clipPath140"
       clipPathUnits="userSpaceOnUse"><path
         id="path138"
         d="M 0,471.746 H 1794.262 V 0 H 0 Z" /></clipPath></defs><g
     transform="matrix(1.3333333,0,0,-1.3333333,0,628.99467)"
     id="g10"><g
       id="g12"><g
         clip-path="url(#clipPath18)"
         id="g14"><g
           transform="translate(1344.8903,376.0346)"
           id="g20"><path
             id="path22"
             style="fill:#ff6a00;fill-opacity:1;fill-rule:nonzero;stroke:none"
             d="m 0,0 c 0,-0.74 -0.036,-1.391 -0.118,-1.953 -0.077,-0.564 -0.195,-1.029 -0.349,-1.398 -0.153,-0.371 -0.348,-0.632 -0.579,-0.787 -0.236,-0.155 -0.487,-0.234 -0.759,-0.234 -0.466,0 -1.245,0.369 -2.332,1.108 -1.087,0.738 -2.543,1.553 -4.373,2.448 -1.825,0.893 -4.009,1.709 -6.552,2.448 -2.547,0.736 -5.567,1.107 -9.063,1.107 -4.158,0 -7.89,-0.758 -11.191,-2.274 -3.302,-1.515 -6.101,-3.613 -8.392,-6.294 -2.292,-2.68 -4.05,-5.866 -5.276,-9.557 -1.22,-3.691 -1.835,-7.692 -1.835,-12.005 0,-4.817 0.672,-9.092 2.015,-12.821 1.338,-3.73 3.194,-6.877 5.562,-9.441 2.368,-2.564 5.198,-4.507 8.479,-5.828 3.286,-1.321 6.885,-1.982 10.812,-1.982 2.333,0 4.691,0.282 7.08,0.846 2.389,0.561 4.614,1.407 6.674,2.535 v 21.971 h -17.486 c -0.661,0 -1.154,0.329 -1.482,0.991 -0.333,0.66 -0.497,1.689 -0.497,3.088 0,0.737 0.036,1.369 0.118,1.893 0.077,0.526 0.2,0.953 0.379,1.283 0.175,0.33 0.375,0.573 0.61,0.728 0.231,0.155 0.523,0.233 0.872,0.233 h 23.956 c 0.425,0 0.851,-0.078 1.282,-0.233 0.425,-0.155 0.815,-0.388 1.163,-0.698 0.349,-0.312 0.621,-0.74 0.815,-1.283 0.195,-0.545 0.293,-1.165 0.293,-1.865 v -28.73 c 0,-1.013 -0.175,-1.887 -0.523,-2.622 -0.349,-0.741 -1.087,-1.392 -2.215,-1.954 -1.128,-0.563 -2.584,-1.176 -4.373,-1.835 -1.784,-0.661 -3.634,-1.225 -5.536,-1.692 -1.902,-0.463 -3.825,-0.815 -5.768,-1.048 -1.943,-0.233 -3.865,-0.348 -5.772,-0.348 -5.824,0 -11.032,0.902 -15.615,2.709 -4.589,1.807 -8.464,4.38 -11.627,7.72 -3.168,3.343 -5.588,7.344 -7.254,12.007 -1.672,4.662 -2.507,9.868 -2.507,15.619 0,5.982 0.902,11.401 2.707,16.258 1.809,4.856 4.352,8.995 7.638,12.414 3.281,3.418 7.223,6.07 11.827,7.955 4.603,1.884 9.704,2.826 15.297,2.826 2.876,0 5.578,-0.252 8.1,-0.757 2.528,-0.505 4.773,-1.099 6.731,-1.778 C -7.1,8.09 -5.449,7.351 -4.106,6.556 -2.768,5.758 -1.846,5.107 -1.338,4.604 -0.836,4.097 -0.487,3.516 -0.292,2.855 -0.097,2.194 0,1.242 0,0" /></g><g
           transform="translate(1372.0504,312.3354)"
           id="g24"><path
             id="path26"
             style="fill:#ff6a00;fill-opacity:1;fill-rule:nonzero;stroke:none"
             d="M 0,0 C 0,-0.31 -0.082,-0.572 -0.236,-0.787 -0.39,-1 -0.641,-1.184 -0.989,-1.341 -1.343,-1.494 -1.83,-1.61 -2.45,-1.689 c -0.621,-0.077 -1.415,-0.116 -2.389,-0.116 -0.933,0 -1.708,0.039 -2.328,0.116 -0.625,0.079 -1.117,0.195 -1.487,0.348 C -9.023,-1.184 -9.279,-1 -9.412,-0.787 -9.551,-0.572 -9.617,-0.31 -9.617,0 v 77.86 c 0,0.31 0.066,0.583 0.205,0.816 0.133,0.234 0.389,0.427 0.758,0.582 0.37,0.155 0.862,0.272 1.487,0.35 0.62,0.078 1.395,0.117 2.328,0.117 0.974,0 1.768,-0.039 2.389,-0.117 0.62,-0.078 1.107,-0.195 1.461,-0.35 0.348,-0.155 0.599,-0.348 0.753,-0.582 C -0.082,78.443 0,78.17 0,77.86 Z" /></g><g
           transform="translate(1428.6366,338.5036)"
           id="g28"><path
             id="path30"
             style="fill:#ff6a00;fill-opacity:1;fill-rule:nonzero;stroke:none"
             d="m 0,0 c 0,2.835 -0.267,5.516 -0.795,8.042 -0.528,2.525 -1.399,4.74 -2.614,6.644 -1.215,1.902 -2.866,3.409 -4.942,4.517 -2.076,1.107 -4.665,1.661 -7.762,1.661 -2.86,0 -5.321,-0.507 -7.382,-1.517 -2.055,-1.01 -3.752,-2.437 -5.085,-4.283 -1.333,-1.845 -2.322,-4.031 -2.968,-6.555 -0.646,-2.526 -0.969,-5.284 -0.969,-8.276 0,-2.876 0.261,-5.576 0.794,-8.101 0.528,-2.526 1.41,-4.73 2.646,-6.614 1.235,-1.886 2.891,-3.381 4.967,-4.489 2.076,-1.107 4.665,-1.661 7.762,-1.661 2.824,0 5.275,0.505 7.351,1.515 2.076,1.01 3.783,2.429 5.116,4.255 1.333,1.827 2.312,4.002 2.938,6.528 C -0.313,-5.81 0,-3.031 0,0 m 9.966,0.641 c 0,-4.274 -0.564,-8.209 -1.692,-11.801 -1.128,-3.595 -2.804,-6.693 -5.039,-9.295 -2.235,-2.604 -5.034,-4.634 -8.392,-6.09 -3.363,-1.458 -7.254,-2.186 -11.683,-2.186 -4.312,0 -8.075,0.64 -11.279,1.922 -3.204,1.282 -5.875,3.148 -8.012,5.596 -2.138,2.447 -3.733,5.42 -4.778,8.916 -1.051,3.496 -1.574,7.459 -1.574,11.888 0,4.274 0.553,8.208 1.661,11.801 1.107,3.594 2.778,6.693 5.008,9.296 2.236,2.603 5.024,4.623 8.367,6.061 3.342,1.436 7.244,2.157 11.714,2.157 4.311,0 8.069,-0.642 11.273,-1.924 C -1.251,25.7 1.42,23.836 3.558,21.388 5.69,18.94 7.295,15.968 8.361,12.471 9.433,8.974 9.966,5.03 9.966,0.641" /></g><g
           transform="translate(1491.0516,338.1537)"
           id="g32"><path
             id="path34"
             style="fill:#ff6a00;fill-opacity:1;fill-rule:nonzero;stroke:none"
             d="m 0,0 c 0,2.681 -0.205,5.283 -0.615,7.809 -0.41,2.525 -1.128,4.759 -2.143,6.702 -1.015,1.942 -2.363,3.506 -4.045,4.692 -1.681,1.184 -3.773,1.777 -6.275,1.777 -1.25,0 -2.481,-0.175 -3.691,-0.525 -1.215,-0.349 -2.445,-0.932 -3.696,-1.748 -1.251,-0.816 -2.553,-1.865 -3.901,-3.147 -1.348,-1.283 -2.784,-2.895 -4.306,-4.837 v -20.922 c 2.655,-3.225 5.198,-5.682 7.623,-7.371 2.419,-1.692 4.942,-2.535 7.561,-2.535 2.425,0 4.496,0.582 6.214,1.748 1.722,1.164 3.122,2.71 4.193,4.632 1.077,1.924 1.856,4.079 2.348,6.47 C -0.246,-4.866 0,-2.448 0,0 m 9.966,1.107 c 0,-4.546 -0.497,-8.635 -1.487,-12.267 -0.989,-3.634 -2.45,-6.733 -4.373,-9.296 -1.922,-2.563 -4.28,-4.527 -7.079,-5.885 -2.799,-1.361 -6.003,-2.041 -9.618,-2.041 -1.671,0 -3.214,0.167 -4.629,0.495 -1.42,0.331 -2.809,0.864 -4.168,1.605 -1.363,0.735 -2.722,1.668 -4.08,2.796 -1.359,1.126 -2.799,2.487 -4.312,4.078 v -6.41 c 0,-0.31 -0.082,-0.582 -0.236,-0.815 -0.153,-0.234 -0.405,-0.418 -0.753,-0.554 -0.354,-0.136 -0.79,-0.241 -1.313,-0.32 -0.528,-0.077 -1.194,-0.116 -2.009,-0.116 -0.779,0 -1.441,0.039 -1.984,0.116 -0.544,0.079 -0.989,0.184 -1.338,0.32 -0.354,0.136 -0.585,0.32 -0.702,0.554 -0.118,0.233 -0.175,0.505 -0.175,0.815 v 77.86 c 0,0.31 0.067,0.583 0.205,0.816 0.134,0.233 0.39,0.427 0.759,0.582 0.369,0.155 0.861,0.272 1.487,0.35 0.62,0.078 1.394,0.116 2.327,0.116 0.974,0 1.769,-0.038 2.389,-0.116 0.62,-0.078 1.107,-0.195 1.461,-0.35 0.349,-0.155 0.6,-0.349 0.754,-0.582 0.153,-0.233 0.236,-0.506 0.236,-0.816 V 20.63 c 1.553,1.593 3.06,2.933 4.516,4.021 1.456,1.088 2.881,1.972 4.281,2.651 1.399,0.68 2.799,1.176 4.198,1.487 1.4,0.31 2.876,0.467 4.43,0.467 3.803,0 7.059,-0.758 9.76,-2.274 2.702,-1.515 4.896,-3.545 6.583,-6.09 C 6.787,18.348 8.023,15.365 8.797,11.947 9.576,8.528 9.966,4.914 9.966,1.107" /></g><g
           transform="translate(1545.4232,336.23)"
           id="g36"><path
             id="path38"
             style="fill:#ff6a00;fill-opacity:1;fill-rule:nonzero;stroke:none"
             d="m 0,0 h -8.218 c -2.64,0 -4.931,-0.224 -6.874,-0.67 -1.943,-0.448 -3.558,-1.108 -4.84,-1.982 -1.281,-0.874 -2.225,-1.922 -2.824,-3.146 -0.605,-1.224 -0.903,-2.633 -0.903,-4.226 0,-2.719 0.862,-4.886 2.594,-6.499 1.728,-1.612 4.148,-2.417 7.254,-2.417 2.528,0 4.865,0.641 7.024,1.923 2.153,1.281 4.419,3.243 6.787,5.886 z m 9.561,-23.951 c 0,-0.466 -0.159,-0.818 -0.467,-1.051 -0.312,-0.233 -0.738,-0.407 -1.286,-0.523 -0.544,-0.118 -1.338,-0.174 -2.389,-0.174 -1.01,0 -1.815,0.056 -2.415,0.174 -0.605,0.116 -1.04,0.29 -1.312,0.523 -0.272,0.233 -0.41,0.585 -0.41,1.051 v 5.244 c -2.292,-2.447 -4.845,-4.352 -7.664,-5.71 -2.815,-1.362 -5.799,-2.041 -8.946,-2.041 -2.758,0 -5.255,0.359 -7.485,1.079 -2.235,0.718 -4.142,1.756 -5.711,3.117 -1.574,1.359 -2.799,3.03 -3.675,5.011 -0.872,1.982 -1.308,4.235 -1.308,6.761 0,2.953 0.6,5.517 1.805,7.693 1.205,2.175 2.932,3.982 5.188,5.419 2.25,1.438 5.008,2.516 8.274,3.235 3.266,0.719 6.936,1.078 11.017,1.078 H 0 v 4.079 c 0,2.02 -0.215,3.808 -0.641,5.363 -0.425,1.553 -1.117,2.845 -2.066,3.875 -0.953,1.029 -2.189,1.806 -3.701,2.331 -1.518,0.525 -3.384,0.786 -5.598,0.786 -2.369,0 -4.496,-0.282 -6.378,-0.844 -1.886,-0.564 -3.537,-1.186 -4.957,-1.865 -1.415,-0.681 -2.604,-1.302 -3.553,-1.865 -0.953,-0.564 -1.661,-0.845 -2.127,-0.845 -0.313,0 -0.584,0.077 -0.815,0.232 -0.236,0.155 -0.436,0.389 -0.615,0.7 -0.175,0.31 -0.298,0.709 -0.375,1.195 -0.082,0.485 -0.117,1.02 -0.117,1.603 0,0.97 0.066,1.738 0.205,2.302 0.133,0.562 0.466,1.097 0.989,1.602 0.523,0.505 1.425,1.098 2.707,1.777 1.287,0.68 2.758,1.302 4.429,1.865 1.671,0.563 3.496,1.029 5.48,1.4 1.984,0.367 3.984,0.553 6.003,0.553 3.768,0 6.972,-0.428 9.618,-1.283 2.64,-0.854 4.778,-2.107 6.408,-3.759 1.63,-1.65 2.814,-3.7 3.558,-6.148 0.733,-2.447 1.107,-5.303 1.107,-8.566 z" /></g><g
           transform="translate(1582.2571,312.3354)"
           id="g40"><path
             id="path42"
             style="fill:#ff6a00;fill-opacity:1;fill-rule:nonzero;stroke:none"
             d="M 0,0 C 0,-0.31 -0.082,-0.572 -0.236,-0.787 -0.39,-1 -0.641,-1.184 -0.989,-1.341 -1.343,-1.494 -1.83,-1.61 -2.45,-1.689 c -0.621,-0.077 -1.415,-0.116 -2.389,-0.116 -0.933,0 -1.708,0.039 -2.328,0.116 -0.625,0.079 -1.117,0.195 -1.487,0.348 C -9.023,-1.184 -9.279,-1 -9.412,-0.787 -9.551,-0.572 -9.617,-0.31 -9.617,0 v 77.86 c 0,0.31 0.066,0.583 0.205,0.816 0.133,0.234 0.389,0.427 0.758,0.582 0.37,0.155 0.862,0.272 1.487,0.35 0.62,0.078 1.395,0.117 2.328,0.117 0.974,0 1.768,-0.039 2.389,-0.117 0.62,-0.078 1.107,-0.195 1.461,-0.35 0.348,-0.155 0.599,-0.348 0.753,-0.582 C -0.082,78.443 0,78.17 0,77.86 Z" /></g><g
           transform="translate(1324.0254,213.5864)"
           id="g44"><path
             id="path46"
             style="fill:#ff6a00;fill-opacity:1;fill-rule:nonzero;stroke:none"
             d="m 0,0 c 0,3.068 -0.569,5.634 -1.717,7.692 -1.149,2.059 -2.564,3.594 -4.255,4.604 -1.687,1.01 -3.435,1.651 -5.245,1.925 -1.804,0.269 -3.563,0.407 -5.275,0.407 h -9.263 v -30.246 h 9.032 c 3.03,0 5.547,0.387 7.547,1.166 1.999,0.777 3.68,1.854 5.039,3.233 1.364,1.379 2.389,3.032 3.091,4.954 C -0.349,-4.342 0,-2.253 0,0 m 10.55,0.815 c 0,-3.768 -0.62,-7.167 -1.866,-10.196 -1.24,-3.033 -3.019,-5.617 -5.331,-7.752 -2.312,-2.137 -5.147,-3.788 -8.51,-4.954 -3.358,-1.167 -7.372,-1.749 -12.032,-1.749 h -8.566 v -27.157 c 0,-0.31 -0.088,-0.582 -0.262,-0.815 -0.174,-0.234 -0.451,-0.418 -0.815,-0.554 -0.374,-0.136 -0.877,-0.254 -1.517,-0.351 -0.641,-0.095 -1.446,-0.144 -2.42,-0.144 -0.969,0 -1.779,0.049 -2.42,0.144 -0.641,0.097 -1.153,0.215 -1.543,0.351 -0.39,0.136 -0.661,0.32 -0.815,0.554 -0.154,0.233 -0.231,0.505 -0.231,0.815 v 69.584 c 0,1.554 0.405,2.661 1.22,3.322 0.815,0.659 1.728,0.99 2.743,0.99 h 16.138 c 1.636,0 3.199,-0.067 4.696,-0.203 1.492,-0.138 3.261,-0.428 5.301,-0.874 2.04,-0.449 4.116,-1.284 6.234,-2.507 C 2.671,18.097 4.47,16.589 5.947,14.803 7.423,13.016 8.561,10.948 9.356,8.597 10.151,6.244 10.55,3.653 10.55,0.815" /></g><g
           transform="translate(1376.1875,186.4288)"
           id="g48"><path
             id="path50"
             style="fill:#ff6a00;fill-opacity:1;fill-rule:nonzero;stroke:none"
             d="m 0,0 h -8.218 c -2.645,0 -4.937,-0.223 -6.88,-0.669 -1.943,-0.449 -3.552,-1.107 -4.834,-1.981 -1.282,-0.874 -2.225,-1.925 -2.83,-3.148 -0.599,-1.225 -0.902,-2.633 -0.902,-4.224 0,-2.722 0.867,-4.888 2.594,-6.501 1.728,-1.612 4.147,-2.417 7.254,-2.417 2.527,0 4.87,0.641 7.023,1.923 2.159,1.281 4.419,3.245 6.793,5.887 z m 9.556,-23.951 c 0,-0.466 -0.154,-0.818 -0.467,-1.051 -0.313,-0.233 -0.738,-0.407 -1.281,-0.523 -0.544,-0.118 -1.338,-0.174 -2.389,-0.174 -1.01,0 -1.815,0.056 -2.42,0.174 -0.6,0.116 -1.041,0.29 -1.312,0.523 -0.272,0.233 -0.405,0.585 -0.405,1.051 v 5.244 c -2.292,-2.447 -4.85,-4.352 -7.665,-5.71 -2.819,-1.362 -5.798,-2.041 -8.945,-2.041 -2.758,0 -5.255,0.359 -7.49,1.079 -2.235,0.718 -4.137,1.756 -5.711,3.117 -1.574,1.359 -2.799,3.03 -3.671,5.011 -0.876,1.982 -1.312,4.235 -1.312,6.762 0,2.951 0.605,5.516 1.81,7.693 1.199,2.173 2.932,3.98 5.183,5.418 2.255,1.438 5.013,2.515 8.279,3.235 3.26,0.718 6.931,1.079 11.012,1.079 H 0 v 4.078 c 0,2.02 -0.215,3.809 -0.641,5.363 -0.43,1.553 -1.117,2.845 -2.071,3.875 -0.954,1.028 -2.184,1.807 -3.701,2.33 -1.513,0.526 -3.379,0.787 -5.593,0.787 -2.369,0 -4.496,-0.282 -6.383,-0.843 -1.886,-0.564 -3.537,-1.187 -4.952,-1.866 -1.42,-0.68 -2.604,-1.302 -3.558,-1.866 -0.948,-0.562 -1.661,-0.844 -2.127,-0.844 -0.308,0 -0.579,0.077 -0.815,0.234 -0.231,0.153 -0.436,0.387 -0.61,0.699 -0.175,0.311 -0.303,0.708 -0.38,1.195 -0.077,0.484 -0.118,1.02 -0.118,1.602 0,0.971 0.067,1.738 0.205,2.302 0.139,0.564 0.467,1.097 0.99,1.602 0.528,0.505 1.43,1.097 2.712,1.779 1.281,0.679 2.758,1.299 4.429,1.863 1.671,0.564 3.496,1.031 5.475,1.4 1.984,0.369 3.983,0.553 6.003,0.553 3.768,0 6.977,-0.428 9.618,-1.281 2.64,-0.856 4.777,-2.11 6.413,-3.761 1.63,-1.65 2.814,-3.701 3.552,-6.146 0.739,-2.448 1.108,-5.304 1.108,-8.569 z" /></g><g
           transform="translate(1425.0789,161.0783)"
           id="g52"><path
             id="path54"
             style="fill:#ff6a00;fill-opacity:1;fill-rule:nonzero;stroke:none"
             d="m 0,0 -6.993,-19.291 c -0.23,-0.62 -0.825,-1.097 -1.773,-1.428 -0.954,-0.328 -2.405,-0.494 -4.343,-0.494 -1.015,0 -1.83,0.048 -2.45,0.146 -0.62,0.097 -1.097,0.261 -1.425,0.494 -0.333,0.234 -0.518,0.546 -0.554,0.933 -0.041,0.39 0.057,0.857 0.287,1.4 L -10.022,0 c -0.349,0.154 -0.682,0.408 -0.99,0.759 -0.312,0.348 -0.523,0.717 -0.641,1.107 l -18.706,50.117 c -0.313,0.817 -0.467,1.458 -0.467,1.925 0,0.466 0.154,0.833 0.467,1.107 0.307,0.272 0.815,0.456 1.512,0.554 0.703,0.094 1.636,0.146 2.799,0.146 1.164,0 2.076,-0.031 2.738,-0.09 0.661,-0.056 1.184,-0.164 1.574,-0.32 0.389,-0.154 0.671,-0.377 0.845,-0.669 0.175,-0.293 0.359,-0.69 0.554,-1.195 l 14.98,-42.076 h 0.174 L 9.269,53.674 c 0.23,0.739 0.512,1.213 0.846,1.428 0.328,0.213 0.825,0.369 1.486,0.467 0.656,0.094 1.61,0.146 2.856,0.146 1.086,0 1.979,-0.052 2.681,-0.146 0.697,-0.098 1.21,-0.282 1.543,-0.554 0.328,-0.274 0.492,-0.641 0.492,-1.107 0,-0.467 -0.113,-1.051 -0.349,-1.749 z" /></g><g
           transform="translate(1533.012,162.5342)"
           id="g56"><path
             id="path58"
             style="fill:#ff6a00;fill-opacity:1;fill-rule:nonzero;stroke:none"
             d="M 0,0 C 0,-0.31 -0.082,-0.572 -0.236,-0.787 -0.39,-1 -0.641,-1.184 -0.989,-1.341 -1.343,-1.494 -1.83,-1.61 -2.45,-1.689 c -0.621,-0.077 -1.4,-0.116 -2.328,-0.116 -0.974,0 -1.769,0.039 -2.389,0.116 -0.625,0.079 -1.117,0.195 -1.486,0.348 -0.37,0.157 -0.636,0.341 -0.79,0.554 C -9.597,-0.572 -9.674,-0.31 -9.674,0 v 31.879 c 0,2.215 -0.194,4.235 -0.584,6.06 -0.39,1.827 -1.01,3.401 -1.866,4.721 -0.856,1.32 -1.943,2.333 -3.261,3.03 -1.322,0.7 -2.875,1.051 -4.665,1.051 -2.214,0 -4.439,-0.856 -6.669,-2.566 -2.235,-1.71 -4.696,-4.217 -7.372,-7.518 V 0 c 0,-0.31 -0.082,-0.572 -0.236,-0.787 -0.154,-0.213 -0.415,-0.397 -0.784,-0.554 -0.375,-0.153 -0.867,-0.269 -1.487,-0.348 -0.625,-0.077 -1.4,-0.116 -2.333,-0.116 -0.892,0 -1.661,0.039 -2.301,0.116 -0.641,0.079 -1.149,0.195 -1.518,0.348 -0.369,0.157 -0.62,0.341 -0.753,0.554 -0.139,0.215 -0.205,0.477 -0.205,0.787 v 31.879 c 0,2.215 -0.216,4.235 -0.641,6.06 -0.431,1.827 -1.072,3.401 -1.923,4.721 -0.856,1.32 -1.932,2.333 -3.234,3.03 -1.303,0.7 -2.851,1.051 -4.635,1.051 -2.214,0 -4.45,-0.856 -6.7,-2.566 -2.256,-1.71 -4.701,-4.217 -7.346,-7.518 V 0 c 0,-0.31 -0.077,-0.572 -0.231,-0.787 -0.159,-0.213 -0.41,-0.397 -0.759,-0.554 -0.348,-0.153 -0.835,-0.269 -1.456,-0.348 -0.625,-0.077 -1.42,-0.116 -2.389,-0.116 -0.933,0 -1.712,0.039 -2.332,0.116 -0.621,0.079 -1.118,0.195 -1.487,0.348 -0.369,0.157 -0.62,0.341 -0.759,0.554 -0.133,0.215 -0.2,0.477 -0.2,0.787 v 52.452 c 0,0.31 0.057,0.571 0.175,0.787 0.112,0.212 0.348,0.407 0.697,0.581 0.349,0.175 0.794,0.293 1.343,0.349 0.543,0.059 1.261,0.09 2.153,0.09 0.856,0 1.564,-0.031 2.128,-0.09 0.564,-0.056 0.999,-0.174 1.312,-0.349 0.308,-0.174 0.533,-0.369 0.672,-0.581 0.133,-0.216 0.2,-0.477 0.2,-0.787 v -6.936 c 2.952,3.301 5.818,5.721 8.597,7.256 2.778,1.533 5.588,2.302 8.423,2.302 2.173,0 4.126,-0.254 5.854,-0.759 1.728,-0.505 3.255,-1.215 4.578,-2.127 1.317,-0.913 2.445,-2 3.378,-3.263 0.933,-1.264 1.707,-2.671 2.333,-4.225 1.748,1.902 3.409,3.515 4.983,4.837 1.574,1.32 3.086,2.389 4.542,3.204 1.461,0.818 2.876,1.41 4.255,1.779 1.379,0.369 2.768,0.554 4.168,0.554 3.378,0 6.218,-0.592 8.51,-1.779 2.291,-1.184 4.147,-2.768 5.562,-4.75 1.42,-1.981 2.43,-4.301 3.035,-6.964 C -0.302,38.92 0,36.114 0,33.161 Z" /></g><g
           transform="translate(1585.6355,193.8878)"
           id="g60"><path
             id="path62"
             style="fill:#ff6a00;fill-opacity:1;fill-rule:nonzero;stroke:none"
             d="m 0,0 c 0.118,5.052 -1.01,9.015 -3.373,11.888 -2.364,2.876 -5.87,4.314 -10.525,4.314 -2.384,0 -4.475,-0.448 -6.27,-1.34 -1.799,-0.895 -3.306,-2.079 -4.516,-3.556 C -25.899,9.83 -26.837,8.11 -27.499,6.149 -28.165,4.186 -28.534,2.138 -28.616,0 Z M 9.674,-2.855 C 9.674,-4.37 9.294,-5.447 8.53,-6.09 7.772,-6.731 6.905,-7.051 5.926,-7.051 h -34.542 c 0,-2.915 0.292,-5.537 0.882,-7.867 0.584,-2.333 1.558,-4.332 2.927,-6.003 1.364,-1.671 3.142,-2.953 5.326,-3.845 2.189,-0.895 4.86,-1.341 8.023,-1.341 2.502,0 4.727,0.203 6.68,0.61 1.948,0.411 3.64,0.864 5.065,1.372 1.425,0.502 2.594,0.961 3.512,1.369 0.917,0.407 1.609,0.612 2.081,0.612 0.272,0 0.518,-0.069 0.728,-0.205 0.215,-0.136 0.384,-0.341 0.502,-0.613 0.113,-0.271 0.205,-0.651 0.262,-1.135 0.056,-0.487 0.087,-1.079 0.087,-1.776 0,-0.508 -0.021,-0.944 -0.056,-1.313 -0.041,-0.369 -0.088,-0.7 -0.149,-0.989 -0.056,-0.292 -0.154,-0.554 -0.287,-0.787 -0.139,-0.233 -0.313,-0.459 -0.528,-0.672 -0.215,-0.212 -0.846,-0.564 -1.892,-1.048 -1.051,-0.487 -2.409,-0.961 -4.081,-1.428 -1.671,-0.466 -3.603,-0.884 -5.798,-1.253 -2.194,-0.369 -4.537,-0.554 -7.023,-0.554 -4.311,0 -8.089,0.603 -11.335,1.807 -3.245,1.202 -5.972,2.992 -8.187,5.363 -2.214,2.368 -3.885,5.339 -5.013,8.915 -1.128,3.573 -1.692,7.73 -1.692,12.472 0,4.506 0.584,8.556 1.753,12.15 1.164,3.594 2.845,6.644 5.04,9.151 2.194,2.504 4.844,4.429 7.956,5.767 3.107,1.341 6.582,2.012 10.427,2.012 4.122,0 7.628,-0.661 10.52,-1.981 C 0.01,20.416 2.389,18.64 4.255,16.405 6.121,14.172 7.49,11.55 8.361,8.538 9.238,5.526 9.674,2.312 9.674,-1.107 Z" /></g><g
           transform="translate(1655.1046,162.5342)"
           id="g64"><path
             id="path66"
             style="fill:#ff6a00;fill-opacity:1;fill-rule:nonzero;stroke:none"
             d="M 0,0 C 0,-0.31 -0.082,-0.572 -0.236,-0.787 -0.39,-1 -0.641,-1.184 -0.995,-1.341 -1.343,-1.494 -1.83,-1.61 -2.451,-1.689 c -0.62,-0.077 -1.399,-0.116 -2.327,-0.116 -0.974,0 -1.769,0.039 -2.394,0.116 -0.62,0.079 -1.107,0.195 -1.456,0.348 -0.349,0.157 -0.6,0.341 -0.759,0.554 -0.153,0.215 -0.23,0.477 -0.23,0.787 v 30.713 c 0,2.991 -0.231,5.401 -0.698,7.226 -0.466,1.827 -1.148,3.401 -2.04,4.721 -0.897,1.32 -2.051,2.333 -3.471,3.03 -1.414,0.7 -3.06,1.051 -4.921,1.051 -2.409,0 -4.819,-0.856 -7.228,-2.566 -2.41,-1.71 -4.932,-4.217 -7.577,-7.518 V 0 c 0,-0.31 -0.077,-0.572 -0.231,-0.787 -0.159,-0.213 -0.41,-0.397 -0.759,-0.554 -0.348,-0.153 -0.835,-0.269 -1.456,-0.348 -0.625,-0.077 -1.42,-0.116 -2.389,-0.116 -0.933,0 -1.712,0.039 -2.332,0.116 -0.62,0.079 -1.118,0.195 -1.487,0.348 -0.369,0.157 -0.62,0.341 -0.758,0.554 -0.134,0.215 -0.2,0.477 -0.2,0.787 v 52.452 c 0,0.31 0.056,0.571 0.174,0.787 0.113,0.212 0.348,0.407 0.697,0.581 0.349,0.175 0.795,0.293 1.343,0.349 0.544,0.059 1.261,0.09 2.153,0.09 0.856,0 1.564,-0.031 2.128,-0.09 0.564,-0.056 0.999,-0.174 1.312,-0.349 0.308,-0.174 0.533,-0.369 0.672,-0.581 0.133,-0.216 0.2,-0.477 0.2,-0.787 v -6.936 c 2.953,3.301 5.895,5.721 8.833,7.256 2.932,1.533 5.895,2.302 8.884,2.302 3.496,0 6.439,-0.592 8.828,-1.779 2.394,-1.184 4.321,-2.768 5.803,-4.75 1.476,-1.981 2.532,-4.301 3.173,-6.964 C -0.323,38.92 0,35.727 0,31.994 Z" /></g><g
           transform="translate(1698.813,166.3816)"
           id="g68"><path
             id="path70"
             style="fill:#ff6a00;fill-opacity:1;fill-rule:nonzero;stroke:none"
             d="m 0,0 c 0,-1.128 -0.082,-2.02 -0.236,-2.681 -0.154,-0.661 -0.389,-1.146 -0.697,-1.456 -0.313,-0.313 -0.779,-0.602 -1.4,-0.874 -0.62,-0.274 -1.332,-0.497 -2.127,-0.672 -0.795,-0.174 -1.64,-0.32 -2.533,-0.435 -0.897,-0.118 -1.789,-0.177 -2.681,-0.177 -2.722,0 -5.054,0.361 -6.992,1.079 -1.948,0.717 -3.537,1.807 -4.783,3.263 -1.241,1.458 -2.143,3.301 -2.707,5.536 -0.564,2.236 -0.846,4.868 -0.846,7.898 v 30.654 h -7.341 c -0.584,0 -1.051,0.31 -1.4,0.933 -0.353,0.62 -0.528,1.63 -0.528,3.029 0,0.739 0.052,1.359 0.149,1.866 0.097,0.503 0.221,0.921 0.379,1.251 0.154,0.331 0.359,0.564 0.611,0.7 0.251,0.136 0.533,0.205 0.845,0.205 h 7.285 v 12.47 c 0,0.272 0.067,0.526 0.205,0.759 0.133,0.233 0.385,0.436 0.754,0.613 0.369,0.174 0.866,0.3 1.486,0.376 0.621,0.08 1.4,0.118 2.333,0.118 0.969,0 1.769,-0.038 2.389,-0.118 0.62,-0.076 1.107,-0.202 1.456,-0.376 0.354,-0.177 0.605,-0.38 0.759,-0.613 0.153,-0.233 0.235,-0.487 0.235,-0.759 v -12.47 h 13.463 c 0.307,0 0.579,-0.069 0.815,-0.205 0.23,-0.136 0.435,-0.369 0.61,-0.7 0.174,-0.33 0.302,-0.748 0.379,-1.251 C -0.041,47.456 0,46.836 0,46.097 0,44.698 -0.174,43.688 -0.528,43.068 -0.877,42.445 -1.343,42.135 -1.922,42.135 H -15.385 V 12.88 c 0,-3.614 0.534,-6.344 1.6,-8.189 1.071,-1.846 2.983,-2.769 5.742,-2.769 0.892,0 1.691,0.088 2.389,0.264 0.697,0.175 1.322,0.359 1.866,0.554 0.543,0.192 1.009,0.377 1.399,0.554 0.385,0.174 0.738,0.261 1.046,0.261 0.195,0 0.379,-0.048 0.554,-0.146 0.174,-0.097 0.312,-0.282 0.41,-0.554 0.097,-0.271 0.184,-0.64 0.261,-1.107 C -0.041,1.282 0,0.7 0,0" /></g><g
           transform="translate(1744.444,176.814)"
           id="g72"><path
             id="path74"
             style="fill:#ff6a00;fill-opacity:1;fill-rule:nonzero;stroke:none"
             d="m 0,0 c 0,-2.681 -0.497,-5.07 -1.487,-7.169 -0.989,-2.097 -2.399,-3.866 -4.224,-5.304 -1.825,-1.438 -4.004,-2.525 -6.526,-3.263 -2.527,-0.738 -5.306,-1.107 -8.336,-1.107 -1.866,0 -3.639,0.146 -5.331,0.438 -1.692,0.29 -3.204,0.659 -4.547,1.108 -1.338,0.446 -2.476,0.91 -3.409,1.397 -0.934,0.487 -1.61,0.922 -2.041,1.312 -0.425,0.387 -0.738,0.933 -0.933,1.63 -0.195,0.7 -0.287,1.651 -0.287,2.856 0,0.738 0.036,1.361 0.113,1.866 0.077,0.505 0.174,0.912 0.292,1.222 0.118,0.313 0.282,0.536 0.497,0.672 0.21,0.136 0.457,0.202 0.728,0.202 0.426,0 1.056,-0.261 1.892,-0.784 0.836,-0.525 1.866,-1.1 3.091,-1.72 1.225,-0.623 2.671,-1.194 4.342,-1.72 1.666,-0.525 3.594,-0.787 5.768,-0.787 1.63,0 3.106,0.175 4.429,0.526 1.323,0.348 2.466,0.863 3.44,1.543 0.969,0.679 1.717,1.545 2.245,2.594 0.523,1.048 0.785,2.291 0.785,3.729 0,1.477 -0.38,2.72 -1.138,3.73 -0.754,1.01 -1.759,1.904 -2.999,2.681 -1.246,0.777 -2.646,1.466 -4.199,2.069 -1.553,0.602 -3.153,1.232 -4.809,1.894 -1.65,0.661 -3.26,1.407 -4.834,2.243 -1.574,0.835 -2.984,1.855 -4.224,3.06 -1.246,1.205 -2.246,2.643 -3.004,4.314 -0.754,1.669 -1.133,3.671 -1.133,6.001 0,2.06 0.394,4.032 1.194,5.916 0.795,1.884 1.989,3.534 3.584,4.954 1.589,1.418 3.583,2.553 5.972,3.409 2.389,0.854 5.178,1.282 8.361,1.282 1.4,0 2.799,-0.118 4.199,-0.351 1.399,-0.233 2.66,-0.523 3.788,-0.874 1.123,-0.349 2.087,-0.728 2.881,-1.136 0.8,-0.407 1.4,-0.766 1.81,-1.079 0.405,-0.31 0.677,-0.582 0.815,-0.815 0.133,-0.233 0.231,-0.495 0.292,-0.787 0.057,-0.289 0.118,-0.651 0.175,-1.076 0.056,-0.428 0.087,-0.954 0.087,-1.574 0,-0.662 -0.031,-1.236 -0.087,-1.72 -0.057,-0.487 -0.154,-0.885 -0.293,-1.195 -0.138,-0.312 -0.302,-0.535 -0.497,-0.671 -0.195,-0.136 -0.405,-0.203 -0.641,-0.203 -0.348,0 -0.851,0.213 -1.512,0.641 -0.661,0.428 -1.517,0.884 -2.563,1.369 -1.051,0.487 -2.287,0.943 -3.701,1.371 -1.421,0.426 -3.041,0.641 -4.866,0.641 -1.635,0 -3.07,-0.185 -4.316,-0.554 -1.241,-0.371 -2.261,-0.894 -3.055,-1.573 -0.8,-0.682 -1.4,-1.487 -1.81,-2.42 -0.405,-0.933 -0.61,-1.943 -0.61,-3.03 0,-1.515 0.384,-2.789 1.164,-3.817 0.779,-1.03 1.789,-1.932 3.029,-2.709 1.246,-0.779 2.661,-1.479 4.255,-2.099 1.595,-0.623 3.215,-1.264 4.865,-1.923 1.651,-0.661 3.286,-1.399 4.896,-2.214 1.615,-0.815 3.04,-1.807 4.286,-2.974 1.241,-1.163 2.24,-2.563 2.999,-4.196 C -0.379,4.196 0,2.253 0,0" /></g></g></g><g
       id="g76"><g
         clip-path="url(#clipPath82)"
         id="g78"><g
           id="g84"><g
             id="g86" /><g
             mask="url(#mask104)"
             id="g116"><g
               id="g118"><path
                 id="path132"
                 style="fill:url(#radialGradient130);stroke:none"
                 d="m 316.664,159.26 c 0,-15.402 70.99,-27.881 158.562,-27.881 v 0 c 87.572,0 158.57,12.479 158.57,27.881 v 0 c 0,15.4 -70.998,27.879 -158.57,27.879 v 0 c -87.572,0 -158.562,-12.479 -158.562,-27.879" /></g></g></g></g></g><g
       id="g134"><g
         clip-path="url(#clipPath140)"
         id="g136"><g
           transform="translate(348.4437,272.2831)"
           id="g142"><path
             id="path144"
             style="fill:#ffffff;fill-opacity:1;fill-rule:nonzero;stroke:none"
             d="M 0,0 C 0,60.93 48.192,110.313 107.64,110.313 167.084,110.313 215.265,60.93 215.265,0 215.265,-60.914 167.084,-110.287 107.64,-110.287 48.192,-110.287 0,-60.914 0,0" /></g><g
           transform="translate(348.4437,272.2831)"
           id="g146"><path
             id="path148"
             style="fill:#ff6a00;fill-opacity:1;fill-rule:nonzero;stroke:none"
             d="M 0,0 H 11.935 C 11.939,27.292 22.704,51.861 40.069,69.67 57.459,87.465 81.26,98.37 107.64,98.378 134.017,98.37 157.814,87.466 175.201,69.671 192.563,51.862 203.326,27.292 203.33,0 203.326,-27.284 192.563,-51.847 175.202,-69.651 157.815,-87.442 134.018,-98.344 107.64,-98.352 81.26,-98.344 57.458,-87.441 40.068,-69.65 22.704,-51.846 11.939,-27.283 11.935,0 H 0 -11.935 c -0.004,-33.632 13.327,-64.212 34.921,-86.323 21.568,-22.124 51.586,-35.908 84.654,-35.9 33.066,-0.008 63.081,13.777 84.646,35.901 21.59,22.111 34.918,52.691 34.914,86.322 0.004,33.638 -13.323,64.224 -34.913,86.34 -21.565,22.129 -51.58,35.917 -84.647,35.909 C 74.571,122.257 44.553,108.47 22.985,86.341 1.391,64.225 -11.939,33.639 -11.935,0 Z" /></g><g
           transform="translate(376.8054,279.4474)"
           id="g150"><path
             id="path152"
             style="fill:#ff6a00;fill-opacity:1;fill-rule:nonzero;stroke:none"
             d="M 0,0 C -10.868,10.65 -18.343,22.979 -22.285,35.666 -18.167,29.558 -13.313,23.674 -7.667,18.162 30.408,-19.048 89.789,-25.425 127.237,2.89 124.046,-1.912 120.13,-6.367 115.426,-10.35 84.443,-36.661 32.791,-32.019 0,0" /></g><g
           transform="translate(376.8054,279.4474)"
           id="g154"><path
             id="path156"
             style="fill:#ff6a00;fill-opacity:1;fill-rule:nonzero;stroke:none"
             d="M 0,0 C -10.868,10.65 -18.343,22.979 -22.285,35.666 -18.167,29.558 -13.313,23.674 -7.667,18.162 30.408,-19.048 89.789,-25.425 127.237,2.89 124.046,-1.912 120.13,-6.367 115.426,-10.35 84.443,-36.661 32.791,-32.019 0,0" /></g><g
           transform="translate(395.159,336.052)"
           id="g158"><path
             id="path160"
             style="fill:#ff6a00;fill-opacity:1;fill-rule:nonzero;stroke:none"
             d="M 0,0 C -1.124,2.621 -0.031,5.589 2.471,6.61 4.968,7.651 7.879,6.356 9.06,3.756 10.169,1.108 9.071,-1.86 6.584,-2.88 4.098,-3.921 1.135,-2.632 0,0" /></g><g
           transform="translate(395.159,336.052)"
           id="g162"><path
             id="path164"
             style="fill:#ff6a00;fill-opacity:1;fill-rule:nonzero;stroke:none"
             d="M 0,0 4.875,2.091 4.863,2.126 H 4.559 L 4.804,1.97 4.863,2.126 H 4.559 L 4.804,1.97 4.209,2.348 4.474,1.698 4.804,1.97 4.209,2.348 4.474,1.698 4.493,1.706 4.513,1.714 4.272,2.291 V 1.666 L 4.513,1.714 4.272,2.291 V 1.666 2.068 L 4.152,1.682 4.272,1.666 V 2.068 L 4.152,1.682 4.181,1.773 4.133,1.689 4.152,1.682 4.181,1.773 4.133,1.689 4.231,1.562 9.06,3.756 4.168,1.707 4.187,1.633 H 4.43 L 4.238,1.754 4.187,1.633 H 4.43 L 4.238,1.754 4.836,1.377 4.569,2.027 4.238,1.754 4.836,1.377 4.569,2.027 4.558,2.022 4.536,2.013 4.782,1.426 V 2.064 L 4.536,2.013 4.782,1.426 V 2.064 1.845 L 4.913,2.042 4.782,2.064 V 1.845 L 4.913,2.042 4.871,2.1 4.875,2.091 0,0 -4.871,-2.1 c 1.719,-3.941 5.481,-6.426 9.653,-6.445 1.281,-10e-4 2.601,0.248 3.85,0.771 L 8.599,-7.787 c 1.966,0.802 3.568,2.216 4.612,3.882 1.051,1.668 1.585,3.586 1.586,5.538 0,1.401 -0.279,2.823 -0.844,4.171 L 13.923,5.878 13.89,5.95 C 12.145,9.762 8.455,12.253 4.272,12.275 2.992,12.276 1.673,12.026 0.43,11.506 l 0.038,0.016 C -1.496,10.726 -3.102,9.321 -4.151,7.659 -5.207,5.994 -5.745,4.077 -5.746,2.126 -5.747,0.708 -5.459,-0.731 -4.875,-2.091 L -4.871,-2.1 Z" /></g><g
           transform="translate(485.399,319.2524)"
           id="g166"><path
             id="path168"
             style="fill:#ff6a00;fill-opacity:1;fill-rule:nonzero;stroke:none"
             d="M 0,0 C -1.124,2.621 -0.036,5.589 2.471,6.61 4.963,7.651 7.879,6.361 9.06,3.756 10.169,1.109 9.071,-1.86 6.584,-2.88 4.092,-3.921 1.134,-2.632 0,0" /></g><g
           transform="translate(485.399,319.2524)"
           id="g170"><path
             id="path172"
             style="fill:#ff6a00;fill-opacity:1;fill-rule:nonzero;stroke:none"
             d="M 0,0 4.875,2.09 4.862,2.129 h -0.31 l 0.25,-0.158 0.06,0.158 H 4.552 L 4.802,1.971 4.204,2.351 4.47,1.697 4.802,1.971 4.204,2.351 4.47,1.697 4.494,1.706 4.517,1.716 4.273,2.299 V 1.667 L 4.517,1.716 4.273,2.299 V 1.667 2.068 L 4.153,1.682 4.273,1.667 V 2.068 L 4.153,1.682 V 1.675 L 4.229,1.566 9.06,3.756 4.168,1.706 4.187,1.633 H 4.43 L 4.238,1.755 4.187,1.633 H 4.43 L 4.238,1.755 4.837,1.377 4.57,2.027 4.238,1.755 4.837,1.377 4.57,2.027 4.558,2.022 4.539,2.014 4.779,1.439 V 2.064 L 4.539,2.014 4.779,1.439 V 2.064 1.84 L 4.913,2.041 4.779,2.064 V 1.84 L 4.913,2.041 4.871,2.1 4.875,2.09 0,0 -4.871,-2.1 c 1.715,-3.936 5.477,-6.427 9.65,-6.445 1.281,-10e-4 2.601,0.247 3.85,0.77 L 8.598,-7.787 c 1.967,0.802 3.569,2.216 4.613,3.881 1.051,1.669 1.585,3.587 1.585,5.539 0.001,1.401 -0.278,2.824 -0.843,4.172 l -0.029,0.07 -0.032,0.071 c -1.746,3.821 -5.441,6.308 -9.619,6.33 -1.282,10e-4 -2.602,-0.25 -3.848,-0.772 l 0.047,0.019 C -1.494,10.729 -3.102,9.324 -4.152,7.661 -5.209,5.996 -5.746,4.078 -5.747,2.129 c 0,-1.419 0.288,-2.86 0.872,-4.219 l 0.008,-0.019 -0.004,0.009 z" /></g><g
           transform="translate(89.6074,387.9528)"
           id="g174"><path
             id="path176"
             style="fill:#1b1b1b;fill-opacity:1;fill-rule:evenodd;stroke:none"
             d="M 0,0 H 42.918 L 96.145,-161.727 150.201,0 h 42.271 l 38.852,-231.87 H 189.022 L 164.271,-85.433 115.255,-231.87 H 76.574 L 28.201,-85.433 2.979,-231.87 h -42.768 z" /></g><g
           transform="translate(279.0526,156.5821)"
           id="g178"><path
             id="path180"
             style="fill:#1b1b1b;fill-opacity:1;fill-rule:nonzero;stroke:none"
             d="M 0,0 H 41.288 L 2.604,230.871 h -41.488 l -54.42,-162.815 -0.47,1.431 -53.115,161.384 h -42.134 L -228.642,0 h 41.754 l 25.151,146.023 0.967,0.073 L -112.51,0 h 37.96 l 48.902,146.098 0.967,-0.077 z M 42.47,-1 H -0.846 L -0.916,-0.583 -25.334,143.885 -73.829,-1 h -39.403 L -161.091,143.881 -186.046,-1 h -43.781 l 0.099,0.585 39.861,232.286 h 43.703 l 0.112,-0.344 52.756,-160.296 53.692,160.64 H 3.45 l 0.071,-0.417 z" /></g><g
           transform="translate(606.3241,387.9528)"
           id="g182"><path
             id="path184"
             style="fill:#1b1b1b;fill-opacity:1;fill-rule:evenodd;stroke:none"
             d="m 0,0 h 41.955 l 98.828,-152.587 V 0 h 43.846 V -231.87 H 142.498 L 43.83,-79.75 V -231.87 H 0 Z" /></g><g
           transform="translate(749.0936,156.5821)"
           id="g186"><path
             id="path188"
             style="fill:#1b1b1b;fill-opacity:1;fill-rule:nonzero;stroke:none"
             d="M 0,0 H 41.359 V 230.871 H -1.486 V 77.093 l -99.6,153.778 H -142.27 V 0 h 42.831 v 153.311 l 0.919,-1.417 z M 42.359,-1 H -0.543 l -0.148,0.228 -97.748,150.704 V -1 h -44.831 v 232.871 h 42.727 l 0.148,-0.228 97.909,-151.167 v 151.395 h 44.845 z" /></g><g
           transform="translate(823.8996,387.9528)"
           id="g190"><path
             id="path192"
             style="fill:#1b1b1b;fill-opacity:1;fill-rule:evenodd;stroke:none"
             d="M 0,0 H 127.351 V -43.486 H 85.355 V -231.87 H 40.893 v 188.384 l -40.893,0 z" /></g><g
           transform="translate(865.2919,156.5821)"
           id="g194"><path
             id="path196"
             style="fill:#1b1b1b;fill-opacity:1;fill-rule:nonzero;stroke:none"
             d="m 0,0 h 43.463 v 188.385 h 41.996 v 42.486 H -40.893 V 188.385 H 0 Z M 44.463,-1 H -1 v 188.385 h -40.893 v 44.486 H 86.459 V 187.385 H 44.463 Z" /></g><g
           transform="translate(974.4839,387.9528)"
           id="g198"><path
             id="path200"
             style="fill:#1b1b1b;fill-opacity:1;fill-rule:evenodd;stroke:none"
             d="M 0,0 H 47.13 L 90.043,-83.236 132.656,0 h 46.498 L 111.831,-131.475 V -231.87 H 67.649 v 100.395 z" /></g><g
           transform="translate(1042.6327,156.5821)"
           id="g202"><path
             id="path204"
             style="fill:#1b1b1b;fill-opacity:1;fill-rule:nonzero;stroke:none"
             d="m 0,0 h 43.183 v 100.017 l 0.054,0.107 66.951,130.747 H 64.813 l -42.917,-83.83 -0.446,0.864 -42.773,82.966 H -67.329 L 0,100.018 Z M 44.183,-1 H -1 V 99.775 l -67.968,132.096 h 48.254 l 0.14,-0.27 42.467,-82.372 42.308,82.642 h 47.621 L 111.45,231.144 44.183,99.776 Z" /></g><path
           id="path206"
           style="fill:#ff6a00;fill-opacity:1;fill-rule:nonzero;stroke:none"
           d="m 1225.424,106.419 h -20.927 V 439.31 h 20.927 z" /><g
           transform="translate(617.2523,101.0743)"
           id="g208"><path
             id="path210"
             style="fill:#1b1b1b;fill-opacity:1;fill-rule:nonzero;stroke:none"
             d="M 0,0 H 10.834 L 24.377,-40.745 38.041,0 h 10.827 l 9.8,-58.417 H 47.915 l -6.264,36.893 -12.41,-36.893 h -9.8 L 7.142,-21.524 0.728,-58.417 h -10.842 z" /></g><g
           transform="translate(704.0569,76.7706)"
           id="g212"><path
             id="path214"
             style="fill:#1b1b1b;fill-opacity:1;fill-rule:nonzero;stroke:none"
             d="m 0,0 c -3.368,0 -6.173,-1.172 -8.413,-3.515 -2.241,-2.342 -3.361,-5.341 -3.361,-8.995 0,-3.76 1.106,-6.804 3.321,-9.134 2.214,-2.33 5.018,-3.495 8.413,-3.495 3.394,0 6.219,1.178 8.474,3.535 2.254,2.356 3.38,5.387 3.38,9.094 0,3.706 -1.107,6.718 -3.321,9.035 C 6.278,-1.158 3.447,0 0,0 m -0.179,10.206 c 4.077,0 7.909,-1.019 11.497,-3.058 3.587,-2.039 6.387,-4.805 8.4,-8.299 2.011,-3.495 3.017,-7.268 3.017,-11.319 0,-4.077 -1.012,-7.889 -3.038,-11.437 -2.025,-3.548 -4.785,-6.322 -8.28,-8.32 -3.494,-1.999 -7.347,-2.999 -11.556,-2.999 -6.195,0 -11.484,2.205 -15.865,6.613 -4.382,4.408 -6.572,9.762 -6.572,16.064 0,6.751 2.474,12.376 7.426,16.877 4.341,3.918 9.333,5.878 14.971,5.878" /></g><g
           transform="translate(735.6487,85.8643)"
           id="g216"><path
             id="path218"
             style="fill:#1b1b1b;fill-opacity:1;fill-rule:nonzero;stroke:none"
             d="m 0,0 h 10.842 v -4.428 c 2.458,2.073 4.685,3.514 6.681,4.324 1.996,0.811 4.039,1.216 6.127,1.216 4.283,0 7.917,-1.496 10.906,-4.487 2.51,-2.542 3.766,-6.302 3.766,-11.278 V -43.207 H 27.601 v 18.921 c 0,5.157 -0.232,8.581 -0.695,10.273 -0.462,1.693 -1.267,2.982 -2.417,3.868 -1.148,0.886 -2.568,1.33 -4.258,1.33 -2.192,0 -4.075,-0.735 -5.645,-2.203 -1.572,-1.467 -2.662,-3.498 -3.27,-6.088 -0.316,-1.349 -0.474,-4.272 -0.474,-8.766 V -43.207 H 0 Z" /></g><g
           transform="translate(816.9007,69.6622)"
           id="g220"><path
             id="path222"
             style="fill:#1b1b1b;fill-opacity:1;fill-rule:nonzero;stroke:none"
             d="m 0,0 c -0.716,2.408 -2.129,4.368 -4.237,5.877 -2.109,1.51 -4.555,2.264 -7.339,2.264 -3.024,0 -5.676,-0.848 -7.956,-2.541 C -20.964,4.54 -22.29,2.674 -23.51,0 Z m 10.842,-8.538 h -34.828 c 0.502,-3.072 1.846,-5.515 4.03,-7.327 2.185,-1.815 4.971,-2.721 8.359,-2.721 4.051,0 7.533,1.416 10.445,4.249 l 9.134,-4.289 c -2.277,-3.229 -5.003,-5.619 -8.181,-7.168 -3.177,-1.549 -6.949,-2.323 -11.318,-2.323 -6.778,0 -12.297,2.138 -16.56,6.414 -4.263,4.275 -6.394,9.63 -6.394,16.063 0,6.593 2.125,12.067 6.374,16.421 4.249,4.356 9.577,6.533 15.985,6.533 6.803,0 12.337,-2.177 16.599,-6.533 C 8.75,6.427 10.881,0.675 10.881,-6.474 Z" /></g><g
           transform="translate(831.7249,85.8643)"
           id="g224"><path
             id="path226"
             style="fill:#1b1b1b;fill-opacity:1;fill-rule:nonzero;stroke:none"
             d="M 0,0 H 11.079 L 22.302,-27.11 34.687,0 h 11.11 L 18.736,-59.013 H 7.54 l 8.884,19.031 z" /></g><g
           transform="translate(907.763,101.7892)"
           id="g228"><path
             id="path230"
             style="fill:#1b1b1b;fill-opacity:1;fill-rule:nonzero;stroke:none"
             d="m 0,0 h 10.842 v -15.925 h 6.432 v -9.332 H 10.842 V -59.132 H 0 v 33.875 h -5.56 v 9.332 H 0 Z" /></g><g
           transform="translate(951.3079,76.7706)"
           id="g232"><path
             id="path234"
             style="fill:#1b1b1b;fill-opacity:1;fill-rule:nonzero;stroke:none"
             d="m 0,0 c -3.368,0 -6.173,-1.172 -8.413,-3.515 -2.241,-2.342 -3.361,-5.341 -3.361,-8.995 0,-3.76 1.106,-6.804 3.321,-9.134 2.214,-2.33 5.018,-3.495 8.413,-3.495 3.394,0 6.219,1.178 8.474,3.535 2.254,2.356 3.38,5.387 3.38,9.094 0,3.706 -1.107,6.718 -3.321,9.035 C 6.278,-1.158 3.447,0 0,0 m -0.179,10.206 c 4.077,0 7.909,-1.019 11.497,-3.058 3.587,-2.039 6.387,-4.805 8.4,-8.299 2.011,-3.495 3.017,-7.268 3.017,-11.319 0,-4.077 -1.012,-7.889 -3.038,-11.437 -2.025,-3.548 -4.785,-6.322 -8.28,-8.32 -3.494,-1.999 -7.347,-2.999 -11.556,-2.999 -6.195,0 -11.484,2.205 -15.865,6.613 -4.382,4.408 -6.572,9.762 -6.572,16.064 0,6.751 2.474,12.376 7.426,16.877 4.341,3.918 9.333,5.878 14.971,5.878" /></g><g
           transform="translate(1000.8607,85.8643)"
           id="g236"><path
             id="path238"
             style="fill:#1b1b1b;fill-opacity:1;fill-rule:nonzero;stroke:none"
             d="M 0,0 H 11.079 L 22.302,-27.11 34.687,0 h 11.11 L 18.736,-59.013 H 7.54 l 8.884,19.031 z" /></g><g
           transform="translate(1073.3051,76.7706)"
           id="g240"><path
             id="path242"
             style="fill:#1b1b1b;fill-opacity:1;fill-rule:nonzero;stroke:none"
             d="m 0,0 c -3.368,0 -6.173,-1.172 -8.413,-3.515 -2.241,-2.342 -3.361,-5.341 -3.361,-8.995 0,-3.76 1.106,-6.804 3.321,-9.134 2.214,-2.33 5.018,-3.495 8.413,-3.495 3.394,0 6.219,1.178 8.474,3.535 2.254,2.356 3.38,5.387 3.38,9.094 0,3.706 -1.107,6.718 -3.321,9.035 C 6.278,-1.158 3.447,0 0,0 m -0.179,10.206 c 4.077,0 7.909,-1.019 11.497,-3.058 3.587,-2.039 6.387,-4.805 8.4,-8.299 2.011,-3.495 3.017,-7.268 3.017,-11.319 0,-4.077 -1.012,-7.889 -3.038,-11.437 -2.025,-3.548 -4.785,-6.322 -8.28,-8.32 -3.494,-1.999 -7.347,-2.999 -11.556,-2.999 -6.195,0 -11.484,2.205 -15.865,6.613 -4.382,4.408 -6.572,9.762 -6.572,16.064 0,6.751 2.474,12.376 7.426,16.877 4.341,3.918 9.333,5.878 14.971,5.878" /></g><g
           transform="translate(1104.8568,85.8643)"
           id="g244"><path
             id="path246"
             style="fill:#1b1b1b;fill-opacity:1;fill-rule:nonzero;stroke:none"
             d="m 0,0 h 10.961 v -20.81 c 0,-4.049 0.278,-6.863 0.836,-8.438 0.557,-1.575 1.453,-2.8 2.687,-3.674 1.234,-0.873 2.753,-1.31 4.558,-1.31 1.805,0 3.338,0.43 4.599,1.291 1.26,0.86 2.195,2.125 2.806,3.793 0.451,1.244 0.677,3.904 0.677,7.981 V 0 h 10.842 v -18.308 c 0,-7.545 -0.596,-12.708 -1.787,-15.487 -1.457,-3.39 -3.602,-5.99 -6.434,-7.804 -2.833,-1.813 -6.433,-2.72 -10.802,-2.72 -4.739,0 -8.572,1.059 -11.497,3.177 -2.925,2.118 -4.984,5.07 -6.175,8.856 C 0.424,-29.665 0,-24.899 0,-17.989 Z" /></g></g></g></g></svg>